<?xml version="1.0"?>
<svg xmlns="http://www.w3.org/2000/svg" xmlns:xlink="http://www.w3.org/1999/xlink" version="1.1" viewBox="0 0 224 224" width="480px" height="480px"><g fill="none" fill-rule="nonzero" stroke="none" stroke-width="1" stroke-linecap="butt" stroke-linejoin="miter" stroke-miterlimit="10" stroke-dasharray="" stroke-dashoffset="0" font-family="none" font-weight="none" font-size="none" text-anchor="none" style="mix-blend-mode: normal"><path d="M0,224v-224h224v224z" fill="none"/><g fill="#ffffff"><path d="M179.2,29.86667h-134.4c-8.25067,0 -14.93333,6.68267 -14.93333,14.93333v134.4c0,8.25067 6.68267,14.93333 14.93333,14.93333h74.66667v-67.2h-22.4v-22.4h22.4v-12.0288c0,-22.77333 11.09547,-32.7712 30.02347,-32.7712c9.06453,0 13.85813,0.672 16.128,0.97813v21.42187h-12.90987c-8.03413,0 -10.8416,4.24107 -10.8416,12.82773v9.57227h23.54987l-3.19573,22.4h-20.35413v67.2h37.33333c8.25067,0 14.93333,-6.68267 14.93333,-14.93333v-134.4c0,-8.25067 -6.69013,-14.93333 -14.93333,-14.93333z"/></g></g></svg>
